<svg width="25" height="24" viewBox="0 0 25 24" fill="none" xmlns="http://www.w3.org/2000/svg">
<path d="M21.4675 3.46447C20.003 2 17.646 2 12.9319 2C8.21787 2 5.86085 2 4.39638 3.46447C3.63889 4.22195 3.27321 5.21824 3.09668 6.65598C3.62734 6.06532 4.26497 5.57328 4.98098 5.20846C5.76246 4.81027 6.59926 4.6488 7.52578 4.5731C8.42091 4.49997 9.52232 4.49998 10.8691 4.5H14.9948C16.3415 4.49998 17.4429 4.49997 18.3381 4.5731C19.2646 4.6488 20.1014 4.81027 20.8829 5.20846C21.5989 5.57328 22.2365 6.06532 22.7672 6.65598C22.5906 5.21824 22.2249 4.22195 21.4675 3.46447Z" fill="white"/>
<path fill-rule="evenodd" clip-rule="evenodd" d="M2.93262 14C2.93262 11.1997 2.93262 9.79961 3.47758 8.73005C3.95695 7.78924 4.72185 7.02433 5.66266 6.54497C6.73222 6 8.13235 6 10.9326 6H14.9326C17.7329 6 19.133 6 20.2026 6.54497C21.1434 7.02433 21.9083 7.78924 22.3876 8.73005C22.9326 9.79961 22.9326 11.1997 22.9326 14C22.9326 16.8003 22.9326 18.2004 22.3876 19.27C21.9083 20.2108 21.1434 20.9757 20.2026 21.455C19.133 22 17.7329 22 14.9326 22H10.9326C8.13235 22 6.73222 22 5.66266 21.455C4.72185 20.9757 3.95695 20.2108 3.47758 19.27C2.93262 18.2004 2.93262 16.8003 2.93262 14ZM13.4629 17.5303C13.3223 17.671 13.1315 17.75 12.9326 17.75C12.7337 17.75 12.5429 17.671 12.4023 17.5303L9.90229 15.0303C9.60939 14.7374 9.60939 14.2626 9.90229 13.9697C10.1952 13.6768 10.6701 13.6768 10.9629 13.9697L12.1826 15.1893V11C12.1826 10.5858 12.5184 10.25 12.9326 10.25C13.3468 10.25 13.6826 10.5858 13.6826 11V15.1893L14.9023 13.9697C15.1952 13.6768 15.6701 13.6768 15.9629 13.9697C16.2558 14.2626 16.2558 14.7374 15.9629 15.0303L13.4629 17.5303Z" fill="white"/>
</svg>
