<svg width="18" height="14" viewBox="0 0 18 14" fill="none" xmlns="http://www.w3.org/2000/svg">
<path d="M17 6.25002C17.4142 6.25002 17.75 6.58581 17.75 7.00002C17.75 7.41424 17.4142 7.75002 17 7.75002H7.75L7.75 13C7.75 13.3034 7.56727 13.5768 7.28701 13.6929C7.00676 13.809 6.68417 13.7449 6.46967 13.5304L0.469669 7.53035C0.329018 7.3897 0.25 7.19893 0.25 7.00002C0.25 6.80111 0.329018 6.61034 0.469669 6.46969L6.46967 0.469692C6.68417 0.255193 7.00676 0.191026 7.28701 0.307112C7.56727 0.423197 7.75 0.696675 7.75 1.00002L7.75 6.25002H17Z" fill="white"/>
</svg>
